<svg width="21" height="21" viewBox="0 0 21 21" fill="none" xmlns="http://www.w3.org/2000/svg">
<path d="M3.17411 17.3661V8.07143H6.26786V17.3661H3.17411ZM6.46875 5.20536C6.46875 6.08928 5.79911 6.8125 4.71429 6.8125H4.70089C3.65625 6.8125 2.98661 6.08928 2.98661 5.20536C2.98661 4.29464 3.68304 3.59821 4.74107 3.59821C5.79911 3.59821 6.45536 4.29464 6.46875 5.20536ZM14.3036 17.3661V12.3973C14.3036 11.1384 13.8616 10.2946 12.75 10.2946C11.8929 10.2946 11.3839 10.8705 11.1563 11.4196C11.0759 11.6205 11.0625 11.9018 11.0625 12.1696V17.3661H7.96875C8.00893 8.94196 7.96875 8.07143 7.96875 8.07143H11.0625V9.42411H11.0357C11.4375 8.78125 12.1741 7.85714 13.8348 7.85714C15.8705 7.85714 17.3973 9.18304 17.3973 12.0357V17.3661H14.3036ZM20.5714 4C20.5714 1.87053 18.8438 0.142856 16.7143 0.142856H3.85714C1.72768 0.142856 0 1.87053 0 4V16.8571C0 18.9866 1.72768 20.7143 3.85714 20.7143H16.7143C18.8438 20.7143 20.5714 18.9866 20.5714 16.8571V4Z" fill="#250A0A"/>
</svg>
