<svg width="22" height="21" viewBox="0 0 22 21" fill="none" xmlns="http://www.w3.org/2000/svg">
<path d="M14.3256 10.4286C14.3256 12.317 12.7854 13.8571 10.897 13.8571C9.00865 13.8571 7.46847 12.317 7.46847 10.4286C7.46847 8.54018 9.00865 7 10.897 7C12.7854 7 14.3256 8.54018 14.3256 10.4286ZM16.1738 10.4286C16.1738 7.50893 13.8167 5.15178 10.897 5.15178C7.9774 5.15178 5.62026 7.50893 5.62026 10.4286C5.62026 13.3482 7.9774 15.7054 10.897 15.7054C13.8167 15.7054 16.1738 13.3482 16.1738 10.4286ZM17.6203 4.9375C17.6203 4.25446 17.0712 3.70536 16.3881 3.70536C15.7051 3.70536 15.156 4.25446 15.156 4.9375C15.156 5.62053 15.7051 6.16964 16.3881 6.16964C17.0712 6.16964 17.6203 5.62053 17.6203 4.9375ZM10.897 1.99107C12.397 1.99107 15.6113 1.87053 16.964 2.40625C17.4328 2.59375 17.781 2.82143 18.1426 3.18303C18.5042 3.54464 18.7319 3.89286 18.9194 4.36161C19.4551 5.71428 19.3345 8.92857 19.3345 10.4286C19.3345 11.9286 19.4551 15.1429 18.9194 16.4955C18.7319 16.9643 18.5042 17.3125 18.1426 17.6741C17.781 18.0357 17.4328 18.2634 16.964 18.4509C15.6113 18.9866 12.397 18.8661 10.897 18.8661C9.39704 18.8661 6.18276 18.9866 4.83008 18.4509C4.36133 18.2634 4.01311 18.0357 3.65151 17.6741C3.2899 17.3125 3.06222 16.9643 2.87472 16.4955C2.33901 15.1429 2.45954 11.9286 2.45954 10.4286C2.45954 8.92857 2.33901 5.71428 2.87472 4.36161C3.06222 3.89286 3.2899 3.54464 3.65151 3.18303C4.01311 2.82143 4.36133 2.59375 4.83008 2.40625C6.18276 1.87053 9.39704 1.99107 10.897 1.99107ZM21.1828 10.4286C21.1828 9.00893 21.1962 7.60268 21.1158 6.18303C21.0354 4.53571 20.6604 3.07589 19.4551 1.87053C18.2497 0.665177 16.7899 0.290177 15.1426 0.209821C13.7229 0.129464 12.3167 0.142856 10.897 0.142856C9.4774 0.142856 8.07115 0.129464 6.65151 0.209821C5.00419 0.290177 3.54436 0.665177 2.33901 1.87053C1.13365 3.07589 0.75865 4.53571 0.678292 6.18303C0.597935 7.60268 0.611328 9.00893 0.611328 10.4286C0.611328 11.8482 0.597935 13.2545 0.678292 14.6741C0.75865 16.3214 1.13365 17.7812 2.33901 18.9866C3.54436 20.192 5.00419 20.567 6.65151 20.6473C8.07115 20.7277 9.4774 20.7143 10.897 20.7143C12.3167 20.7143 13.7229 20.7277 15.1426 20.6473C16.7899 20.567 18.2497 20.192 19.4551 18.9866C20.6604 17.7812 21.0354 16.3214 21.1158 14.6741C21.1962 13.2545 21.1828 11.8482 21.1828 10.4286Z" fill="#250A0A"/>
</svg>
