<svg width="25" height="28" viewBox="0 0 25 28" fill="none" xmlns="http://www.w3.org/2000/svg">
<path d="M22.127 9.125C23.0645 8.42188 23.9082 7.57812 24.5645 6.59375C23.7207 6.96875 22.7363 7.25 21.752 7.34375C22.7832 6.73438 23.5332 5.79688 23.9082 4.625C22.9707 5.1875 21.8926 5.60938 20.8145 5.84375C19.877 4.85938 18.6113 4.29688 17.2051 4.29688C14.4863 4.29688 12.2832 6.5 12.2832 9.21875C12.2832 9.59375 12.3301 9.96875 12.4238 10.3438C8.3457 10.1094 4.68945 8.14062 2.25195 5.1875C1.83008 5.89062 1.5957 6.73438 1.5957 7.67188C1.5957 9.35938 2.43945 10.8594 3.79883 11.75C3.00195 11.7031 2.20508 11.5156 1.54883 11.1406V11.1875C1.54883 13.5781 3.23633 15.5469 5.48633 16.0156C5.11133 16.1094 4.64258 16.2031 4.2207 16.2031C3.89258 16.2031 3.61133 16.1562 3.2832 16.1094C3.89258 18.0781 5.7207 19.4844 7.87695 19.5312C6.18945 20.8438 4.08008 21.6406 1.7832 21.6406C1.36133 21.6406 0.986328 21.5938 0.611328 21.5469C2.76758 22.9531 5.3457 23.75 8.1582 23.75C17.2051 23.75 22.127 16.2969 22.127 9.78125C22.127 9.54688 22.127 9.35938 22.127 9.125Z" fill="#250A0A"/>
</svg>
