<svg width="32" height="27" viewBox="0 0 32 27" fill="none" xmlns="http://www.w3.org/2000/svg">
<path fill-rule="evenodd" clip-rule="evenodd" d="M0.0173611 2.3716C0.0173611 1.36914 0.813299 0.556489 1.79514 0.556489H30.2222C31.2041 0.556489 32 1.36914 32 2.3716V22.9263C32 24.9312 30.4081 26.5565 28.4444 26.5565H3.55556C1.59188 26.5565 0 24.9312 0 22.9263V2.96009C0 2.87365 0.00591744 2.78863 0.0173611 2.70542V2.3716ZM3.55556 6.40795V22.9263H28.4444V6.40857L19.7715 15.2636C17.6887 17.3901 14.3119 17.3901 12.2291 15.2636L3.55556 6.40795ZM6.3508 4.12799H25.6498L17.2574 12.6966C16.5631 13.4055 15.4375 13.4055 14.7432 12.6966L6.3508 4.12799Z" fill="black"/>
</svg>
